<?xml version="1.0" encoding="utf-8" standalone="no"?>
<!DOCTYPE svg PUBLIC "-//W3C//DTD SVG 1.1//EN" "http://www.w3.org/Graphics/SVG/1.1/DTD/svg11.dtd">
<svg xmlns="http://www.w3.org/2000/svg" xmlns:xl="http://www.w3.org/1999/xlink" version="1.1" viewBox="204 204 240 240" width="20pc" height="20pc" xmlns:dc="http://purl.org/dc/elements/1.1/"><metadata> Produced by OmniGraffle 6.2.3 <dc:date>2015-06-11 13:49:12 +0000</dc:date></metadata><defs/><g stroke="none" stroke-opacity="1" stroke-dasharray="none" fill="none" fill-opacity="1"><title>Canvas 1</title><g><title>Layer 1</title><path d="M 231 216 L 417 216 C 425.28427 216 432 222.71573 432 231 L 432 417 C 432 425.28427 425.28427 432 417 432 L 231 432 C 222.71573 432 216 425.28427 216 417 L 216 231 C 216 222.71573 222.71573 216 231 216 Z" fill="#21ace1"/><path d="M 216 351 L 324 216 L 243 216 L 225 216 L 216 225 Z" fill="#1d9cce"/><path d="M 360 432 L 216 261 L 216 423 L 225 432 Z" fill="#24bcf8"/><path d="M 340.66667 430 L 430.66667 331 L 430.66667 424.78947 L 425.04167 430 Z" fill="#2ee7f8"/></g><g><title>Layer 3</title><path d="M 360 346.4 L 396 346.4 L 360 389.6 Z" fill="#206731"/><path d="M 396 389.6 L 360 389.6 L 396 346.4 Z" fill="#622e34"/><path d="M 324 389.6 L 360 389.6 L 324 346.4 Z" fill="#55282c"/><path d="M 360 389.4 L 324 389.4 L 360 432.6 Z" fill="#622e34"/><path d="M 324 431.93333 L 360 431.93333 L 324 388.73333 Z" fill="#55282c"/><path d="M 360 389.4 L 396 389.4 L 360 432.6 Z" fill="#55282c"/><path d="M 396 431.93333 L 360 431.93333 L 396 388.73333 Z" fill="#622e34"/><path d="M 324 346.6 L 360 346.6 L 324 303.4 Z" fill="#206731"/><path d="M 288 346.6 L 324 346.6 L 288 303.4 Z" fill="#206731"/><path d="M 288 303.6 L 252 303.6 L 288 261 Z" fill="#206731"/><path d="M 324 303.6 L 288 303.6 L 324 261 Z" fill="#206731"/><path d="M 324 303.6 L 360 303.6 L 324 261 Z" fill="#206731"/><path d="M 360 261 L 396 261 L 360 303.6 Z" fill="#206731"/><path d="M 432 261 L 396 261 L 432 303.6 Z" fill="#206731"/><path d="M 396 346.66667 L 432 346.66667 L 396 389.26667 Z" fill="#206731"/><path d="M 324 303.33333 L 288 303.33333 L 324 346.53333 Z" fill="#368150"/><path d="M 288 303.33333 L 252 303.33333 L 288 346.53333 Z" fill="#368150"/><path d="M 324 346.66667 L 288 346.66667 L 324 389.86667 Z" fill="#368150"/><path d="M 360 346.66667 L 324 346.66667 L 360 389.86667 Z" fill="#368150"/><path d="M 360 303.33333 L 324 303.33333 L 360 346.53333 Z" fill="#368150"/><path d="M 396 346.53333 L 360 346.53333 L 396 303.33333 Z" fill="#368150"/><path d="M 396 303.53333 L 360 303.53333 L 396 260.33333 Z" fill="#368150"/><path d="M 396 303.53333 L 432 303.53333 L 396 260.33333 Z" fill="#368150"/><path d="M 360 303.4 L 396 303.4 L 360 346.6 Z" fill="#206731"/><path d="M 432 346.53333 L 396 346.53333 L 432 303.33333 Z" fill="#368150"/><path d="M 396 303.4 L 432 303.4 L 396 346.6 Z" fill="#206731"/><path d="M 288 261 L 324 261 L 288 304.2 Z" fill="#368150"/><path d="M 360 261 L 324 261 L 360 304.2 Z" fill="#368150"/></g><g><title>Layer 2</title><path d="M 231 216 L 417 216 C 425.28427 216 432 222.71573 432 231 L 432 417 C 432 425.28427 425.28427 432 417 432 L 231 432 C 222.71573 432 216 425.28427 216 417 L 216 231 C 216 222.71573 222.71573 216 231 216 Z" stroke="white" stroke-linecap="round" stroke-linejoin="round" stroke-width="4"/></g></g></svg>
