<?xml version="1.0" encoding="utf-8" standalone="no"?>
<!DOCTYPE svg PUBLIC "-//W3C//DTD SVG 1.1//EN" "http://www.w3.org/Graphics/SVG/1.1/DTD/svg11.dtd">
<svg xmlns="http://www.w3.org/2000/svg" xmlns:xl="http://www.w3.org/1999/xlink" version="1.1" viewBox="204 204 240 240" width="20pc" height="20pc" xmlns:dc="http://purl.org/dc/elements/1.1/"><metadata> Produced by OmniGraffle 6.2.3 <dc:date>2015-06-11 10:21:57 +0000</dc:date></metadata><defs/><g stroke="none" stroke-opacity="1" stroke-dasharray="none" fill="none" fill-opacity="1"><title>Canvas 1</title><g><title>Layer 1</title><path d="M 231 216 L 417 216 C 425.28427 216 432 222.71573 432 231 L 432 417 C 432 425.28427 425.28427 432 417 432 L 231 432 C 222.71573 432 216 425.28427 216 417 L 216 231 C 216 222.71573 222.71573 216 231 216 Z" fill="#18509c"/><path d="M 396 389.6 L 360 389.6 L 396 346.4 Z" fill="#206cd1"/><path d="M 360 346.4 L 396 346.4 L 360 389.6 Z" fill="#237aed"/><path d="M 396 346.4 L 432 346.4 L 396 389.6 Z" fill="#237aed"/><path d="M 360 346.4 L 324 346.4 L 360 389.6 Z" fill="#206cd1"/><path d="M 324 389.6 L 360 389.6 L 324 346.4 Z" fill="#237aed"/><path d="M 324 346.4 L 288 346.4 L 324 389.6 Z" fill="#206cd1"/><path d="M 360 389.6 L 324 389.6 L 360 432.8 Z" fill="#206cd1"/><path d="M 324 432.8 L 360 432.8 L 324 389.6 Z" fill="#237aed"/><path d="M 396 432.8 L 360 432.8 L 396 389.6 Z" fill="#206cd1"/><path d="M 360 389.6 L 396 389.6 L 360 432.8 Z" fill="#237aed"/><path d="M 396 346.4 L 360 346.4 L 396 303.2 Z" fill="#206cd1"/><path d="M 360 303.2 L 396 303.2 L 360 346.4 Z" fill="#237aed"/><path d="M 360 303.2 L 324 303.2 L 360 346.4 Z" fill="#206cd1"/><path d="M 324 346.4 L 360 346.4 L 324 303.2 Z" fill="#237aed"/><path d="M 324 303.2 L 288 303.2 L 324 346.4 Z" fill="#206cd1"/><path d="M 288 346.4 L 324 346.4 L 288 303.2 Z" fill="#237aed"/><path d="M 432 346.4 L 396 346.4 L 432 303.2 Z" fill="#206cd1"/><path d="M 396 303.2 L 432 303.2 L 396 346.4 Z" fill="#237aed"/><path d="M 396 303.2 L 360 303.2 L 396 260 Z" fill="#206cd1"/><path d="M 360 260 L 396 260 L 360 303.2 Z" fill="#237aed"/><path d="M 288 260 L 324 260 L 288 303.2 Z" fill="#206cd1"/><path d="M 324 303.2 L 288 303.2 L 324 260 Z" fill="#237aed"/><path d="M 360 260 L 324 260 L 360 303.2 Z" fill="#206cd1"/><path d="M 324 303.2 L 360 303.2 L 324 260 Z" fill="#237aed"/><path d="M 396 303.2 L 432 303.2 L 396 260 Z" fill="#206cd1"/><path d="M 432 260 L 396 260 L 432 303.2 Z" fill="#237aed"/><path d="M 288 303.2 L 252 303.2 L 288 260 Z" fill="#237aed"/><path d="M 288 303.2 L 252 303.2 L 288 346.4 Z" fill="#206cd1"/><path d="M 231 216 L 417 216 C 425.28427 216 432 222.71573 432 231 L 432 417 C 432 425.28427 425.28427 432 417 432 L 231 432 C 222.71573 432 216 425.28427 216 417 L 216 231 C 216 222.71573 222.71573 216 231 216 Z" stroke="white" stroke-linecap="round" stroke-linejoin="round" stroke-width="4"/></g></g></svg>
